<svg width="28" height="28" viewBox="0 0 28 28" fill="none" xmlns="http://www.w3.org/2000/svg">
<path d="M19.8345 23.3333H7.00118C6.38234 23.3333 5.78885 23.0875 5.35126 22.6499C4.91368 22.2123 4.66785 21.6188 4.66785 21V8.16666C4.66785 7.54782 4.91368 6.95433 5.35126 6.51674C5.78885 6.07916 6.38234 5.83332 7.00118 5.83332H11.6678V8.16666H7.00118V21H19.8345V16.3333H22.1678V21C22.1678 21.6188 21.922 22.2123 21.4844 22.6499C21.0468 23.0875 20.4534 23.3333 19.8345 23.3333ZM13.6512 15.9915L12.0062 14.3418L19.348 6.99999H15.1678V4.66666H23.3345V12.8333H21.0012V8.65082L13.6512 15.9915Z" fill="white"/>
</svg>
