<svg width="24" height="24" viewBox="0 0 24 24" fill="none" xmlns="http://www.w3.org/2000/svg">
<path d="M20.205 4.79099L19.8507 5.14379C22.014 7.31621 22.0117 10.6961 19.8535 12.8534L19.8535 12.8534L12 20.7069L4.14656 12.8534L4.14649 12.8534C1.98814 10.6959 1.98629 7.31599 4.14531 5.14779L4.14604 5.14706C4.65129 4.63756 5.2523 4.23301 5.9145 3.95669C6.57661 3.68041 7.28682 3.53777 8.00427 3.53699C9.35902 3.5371 10.6643 4.04606 11.6616 4.96304L12 5.27419L12.3384 4.96309C13.3358 4.04622 14.6411 3.53726 15.9959 3.53699C16.7124 3.53757 17.4218 3.67976 18.0833 3.9554C18.7448 4.23107 19.3453 4.63477 19.8502 5.14329L20.205 4.79099Z" stroke="white"/>
</svg>
